<svg id="s" xmlns="http://www.w3.org/2000/svg" width="530" height="140" viewBox="5 30 520 130">
    <defs>
        <clipPath id="c1">
            <text class="q" x="0" y="115">O</text>
            <path class="qt" d="M 0 0 L 50 50 L 65 35 L 15 -15 Z"></path>
        </clipPath>
    </defs>
    <style>
        #s {
            color: #d1d3dc;
        }
        .q {
            font-size: 160px;
            font-family: sans-serif;
            font-weight: 800;
            fill: currentColor;
        }
        .qt {
            transform: translate(55px, 70px);
        }
        .txt {
            font-weight: 800;
            font-family: serif;
            font-size: 150px;
            fill: currentColor;
        }
        #container {
            transform: translate(395px, 35px);
            clip-path: url(#c1);
        }
        .t {
            font-weight: 400;
            font-family: monospace;
            fill: currentColor;
            font-size: 13px;
        }
    </style>
    <text x="10" y="145" class="txt">Termi</text>
    
    <g id="container">
        <g id="small-text">
            <animateTransform type="translate" values="0 0;-20 0;-40 0;-60 0;-80 0;-100 0;-120 0;-140 0;-160 0;-180 0" dur="3s" calcMode="discrete" attributeName="transform" attributeType="XML" repeatCount="indefinite">
            </animateTransform>
        <text class="t" x="0" y="0">n</text><text class="t" x="8" y="0">d</text><text class="t" x="16" y="0">o</text><text class="t" x="24" y="0">b</text><text class="t" x="32" y="0">s</text><text class="t" x="40" y="0">g</text><text class="t" x="48" y="0">k</text><text class="t" x="56" y="0">d</text><text class="t" x="64" y="0">a</text><text class="t" x="72" y="0">s</text><text class="t" x="80" y="0">u</text><text class="t" x="88" y="0">e</text><text class="t" x="96" y="0">z</text><text class="t" x="104" y="0">j</text><text class="t" x="112" y="0">t</text><text class="t" x="120" y="0">z</text><text class="t" x="128" y="0">g</text><text class="t" x="136" y="0">j</text><text class="t" x="144" y="0">z</text><text class="t" x="152" y="0">h</text><text class="t" x="160" y="0">u</text><text class="t" x="168" y="0">t</text><text class="t" x="176" y="0">d</text><text class="t" x="184" y="0">j</text><text class="t" x="192" y="0">k</text><text class="t" x="200" y="0">d</text><text class="t" x="208" y="0">j</text><text class="t" x="216" y="0">r</text><text class="t" x="224" y="0">f</text><text class="t" x="232" y="0">o</text><text class="t" x="240" y="0">l</text><text class="t" x="248" y="0">d</text><text class="t" x="256" y="0">q</text><text class="t" x="264" y="0">s</text><text class="t" x="272" y="0">h</text><text class="t" x="280" y="0">t</text><text class="t" x="288" y="0">d</text><text class="t" x="296" y="0">y</text><text class="t" x="304" y="0">i</text><text class="t" x="312" y="0">g</text><text class="t" x="320" y="0">h</text><text class="t" x="328" y="0">z</text><text class="t" x="336" y="0">b</text><text class="t" x="344" y="0">w</text><text class="t" x="352" y="0">m</text><text class="t" x="360" y="0">l</text><text class="t" x="368" y="0">z</text><text class="t" x="376" y="0">o</text><text class="t" x="384" y="0">v</text><text class="t" x="392" y="0">t</text><text class="t" x="0" y="10">i</text><text class="t" x="8" y="10">r</text><text class="t" x="16" y="10">i</text><text class="t" x="24" y="10">m</text><text class="t" x="32" y="10">r</text><text class="t" x="40" y="10">w</text><text class="t" x="48" y="10">u</text><text class="t" x="56" y="10">i</text><text class="t" x="64" y="10">y</text><text class="t" x="72" y="10">y</text><text class="t" x="80" y="10">n</text><text class="t" x="88" y="10">g</text><text class="t" x="96" y="10">m</text><text class="t" x="104" y="10">a</text><text class="t" x="112" y="10">v</text><text class="t" x="120" y="10">x</text><text class="t" x="128" y="10">z</text><text class="t" x="136" y="10">k</text><text class="t" x="144" y="10">i</text><text class="t" x="152" y="10">s</text><text class="t" x="160" y="10">f</text><text class="t" x="168" y="10">p</text><text class="t" x="176" y="10">c</text><text class="t" x="184" y="10">k</text><text class="t" x="192" y="10">f</text><text class="t" x="200" y="10">j</text><text class="t" x="208" y="10">w</text><text class="t" x="216" y="10">c</text><text class="t" x="224" y="10">a</text><text class="t" x="232" y="10">g</text><text class="t" x="240" y="10">q</text><text class="t" x="248" y="10">u</text><text class="t" x="256" y="10">w</text><text class="t" x="264" y="10">k</text><text class="t" x="272" y="10">f</text><text class="t" x="280" y="10">c</text><text class="t" x="288" y="10">t</text><text class="t" x="296" y="10">v</text><text class="t" x="304" y="10">u</text><text class="t" x="312" y="10">q</text><text class="t" x="320" y="10">i</text><text class="t" x="328" y="10">f</text><text class="t" x="336" y="10">j</text><text class="t" x="344" y="10">v</text><text class="t" x="352" y="10">t</text><text class="t" x="360" y="10">b</text><text class="t" x="368" y="10">u</text><text class="t" x="376" y="10">c</text><text class="t" x="384" y="10">h</text><text class="t" x="392" y="10">m</text><text class="t" x="0" y="20">b</text><text class="t" x="8" y="20">r</text><text class="t" x="16" y="20">w</text><text class="t" x="24" y="20">r</text><text class="t" x="32" y="20">v</text><text class="t" x="40" y="20">c</text><text class="t" x="48" y="20">h</text><text class="t" x="56" y="20">k</text><text class="t" x="64" y="20">y</text><text class="t" x="72" y="20">z</text><text class="t" x="80" y="20">b</text><text class="t" x="88" y="20">x</text><text class="t" x="96" y="20">x</text><text class="t" x="104" y="20">q</text><text class="t" x="112" y="20">n</text><text class="t" x="120" y="20">l</text><text class="t" x="128" y="20">u</text><text class="t" x="136" y="20">z</text><text class="t" x="144" y="20">r</text><text class="t" x="152" y="20">g</text><text class="t" x="160" y="20">q</text><text class="t" x="168" y="20">e</text><text class="t" x="176" y="20">d</text><text class="t" x="184" y="20">f</text><text class="t" x="192" y="20">h</text><text class="t" x="200" y="20">v</text><text class="t" x="208" y="20">l</text><text class="t" x="216" y="20">y</text><text class="t" x="224" y="20">e</text><text class="t" x="232" y="20">o</text><text class="t" x="240" y="20">g</text><text class="t" x="248" y="20">s</text><text class="t" x="256" y="20">h</text><text class="t" x="264" y="20">j</text><text class="t" x="272" y="20">o</text><text class="t" x="280" y="20">x</text><text class="t" x="288" y="20">j</text><text class="t" x="296" y="20">y</text><text class="t" x="304" y="20">w</text><text class="t" x="312" y="20">u</text><text class="t" x="320" y="20">f</text><text class="t" x="328" y="20">q</text><text class="t" x="336" y="20">y</text><text class="t" x="344" y="20">t</text><text class="t" x="352" y="20">b</text><text class="t" x="360" y="20">m</text><text class="t" x="368" y="20">w</text><text class="t" x="376" y="20">u</text><text class="t" x="384" y="20">l</text><text class="t" x="392" y="20">b</text><text class="t" x="0" y="30">b</text><text class="t" x="8" y="30">h</text><text class="t" x="16" y="30">t</text><text class="t" x="24" y="30">m</text><text class="t" x="32" y="30">b</text><text class="t" x="40" y="30">o</text><text class="t" x="48" y="30">f</text><text class="t" x="56" y="30">r</text><text class="t" x="64" y="30">l</text><text class="t" x="72" y="30">u</text><text class="t" x="80" y="30">v</text><text class="t" x="88" y="30">l</text><text class="t" x="96" y="30">n</text><text class="t" x="104" y="30">r</text><text class="t" x="112" y="30">d</text><text class="t" x="120" y="30">o</text><text class="t" x="128" y="30">f</text><text class="t" x="136" y="30">b</text><text class="t" x="144" y="30">w</text><text class="t" x="152" y="30">j</text><text class="t" x="160" y="30">u</text><text class="t" x="168" y="30">b</text><text class="t" x="176" y="30">j</text><text class="t" x="184" y="30">v</text><text class="t" x="192" y="30">e</text><text class="t" x="200" y="30">f</text><text class="t" x="208" y="30">z</text><text class="t" x="216" y="30">h</text><text class="t" x="224" y="30">o</text><text class="t" x="232" y="30">m</text><text class="t" x="240" y="30">a</text><text class="t" x="248" y="30">e</text><text class="t" x="256" y="30">y</text><text class="t" x="264" y="30">g</text><text class="t" x="272" y="30">c</text><text class="t" x="280" y="30">w</text><text class="t" x="288" y="30">c</text><text class="t" x="296" y="30">y</text><text class="t" x="304" y="30">m</text><text class="t" x="312" y="30">w</text><text class="t" x="320" y="30">f</text><text class="t" x="328" y="30">c</text><text class="t" x="336" y="30">g</text><text class="t" x="344" y="30">d</text><text class="t" x="352" y="30">g</text><text class="t" x="360" y="30">j</text><text class="t" x="368" y="30">r</text><text class="t" x="376" y="30">v</text><text class="t" x="384" y="30">b</text><text class="t" x="392" y="30">r</text><text class="t" x="0" y="40">f</text><text class="t" x="8" y="40">x</text><text class="t" x="16" y="40">w</text><text class="t" x="24" y="40">r</text><text class="t" x="32" y="40">j</text><text class="t" x="40" y="40">h</text><text class="t" x="48" y="40">u</text><text class="t" x="56" y="40">s</text><text class="t" x="64" y="40">n</text><text class="t" x="72" y="40">u</text><text class="t" x="80" y="40">x</text><text class="t" x="88" y="40">z</text><text class="t" x="96" y="40">t</text><text class="t" x="104" y="40">y</text><text class="t" x="112" y="40">u</text><text class="t" x="120" y="40">h</text><text class="t" x="128" y="40">a</text><text class="t" x="136" y="40">x</text><text class="t" x="144" y="40">y</text><text class="t" x="152" y="40">g</text><text class="t" x="160" y="40">b</text><text class="t" x="168" y="40">d</text><text class="t" x="176" y="40">x</text><text class="t" x="184" y="40">t</text><text class="t" x="192" y="40">e</text><text class="t" x="200" y="40">b</text><text class="t" x="208" y="40">s</text><text class="t" x="216" y="40">v</text><text class="t" x="224" y="40">g</text><text class="t" x="232" y="40">c</text><text class="t" x="240" y="40">t</text><text class="t" x="248" y="40">o</text><text class="t" x="256" y="40">b</text><text class="t" x="264" y="40">z</text><text class="t" x="272" y="40">h</text><text class="t" x="280" y="40">y</text><text class="t" x="288" y="40">l</text><text class="t" x="296" y="40">f</text><text class="t" x="304" y="40">f</text><text class="t" x="312" y="40">x</text><text class="t" x="320" y="40">y</text><text class="t" x="328" y="40">f</text><text class="t" x="336" y="40">f</text><text class="t" x="344" y="40">t</text><text class="t" x="352" y="40">g</text><text class="t" x="360" y="40">i</text><text class="t" x="368" y="40">o</text><text class="t" x="376" y="40">z</text><text class="t" x="384" y="40">k</text><text class="t" x="392" y="40">y</text><text class="t" x="0" y="50">e</text><text class="t" x="8" y="50">l</text><text class="t" x="16" y="50">v</text><text class="t" x="24" y="50">y</text><text class="t" x="32" y="50">f</text><text class="t" x="40" y="50">x</text><text class="t" x="48" y="50">l</text><text class="t" x="56" y="50">a</text><text class="t" x="64" y="50">g</text><text class="t" x="72" y="50">z</text><text class="t" x="80" y="50">r</text><text class="t" x="88" y="50">x</text><text class="t" x="96" y="50">m</text><text class="t" x="104" y="50">h</text><text class="t" x="112" y="50">j</text><text class="t" x="120" y="50">j</text><text class="t" x="128" y="50">q</text><text class="t" x="136" y="50">n</text><text class="t" x="144" y="50">i</text><text class="t" x="152" y="50">y</text><text class="t" x="160" y="50">j</text><text class="t" x="168" y="50">t</text><text class="t" x="176" y="50">l</text><text class="t" x="184" y="50">w</text><text class="t" x="192" y="50">c</text><text class="t" x="200" y="50">j</text><text class="t" x="208" y="50">j</text><text class="t" x="216" y="50">x</text><text class="t" x="224" y="50">x</text><text class="t" x="232" y="50">o</text><text class="t" x="240" y="50">r</text><text class="t" x="248" y="50">g</text><text class="t" x="256" y="50">s</text><text class="t" x="264" y="50">s</text><text class="t" x="272" y="50">h</text><text class="t" x="280" y="50">f</text><text class="t" x="288" y="50">c</text><text class="t" x="296" y="50">z</text><text class="t" x="304" y="50">w</text><text class="t" x="312" y="50">c</text><text class="t" x="320" y="50">q</text><text class="t" x="328" y="50">w</text><text class="t" x="336" y="50">b</text><text class="t" x="344" y="50">v</text><text class="t" x="352" y="50">a</text><text class="t" x="360" y="50">i</text><text class="t" x="368" y="50">j</text><text class="t" x="376" y="50">b</text><text class="t" x="384" y="50">w</text><text class="t" x="392" y="50">r</text><text class="t" x="0" y="60">b</text><text class="t" x="8" y="60">r</text><text class="t" x="16" y="60">b</text><text class="t" x="24" y="60">a</text><text class="t" x="32" y="60">o</text><text class="t" x="40" y="60">o</text><text class="t" x="48" y="60">m</text><text class="t" x="56" y="60">c</text><text class="t" x="64" y="60">g</text><text class="t" x="72" y="60">f</text><text class="t" x="80" y="60">i</text><text class="t" x="88" y="60">w</text><text class="t" x="96" y="60">j</text><text class="t" x="104" y="60">k</text><text class="t" x="112" y="60">j</text><text class="t" x="120" y="60">i</text><text class="t" x="128" y="60">v</text><text class="t" x="136" y="60">k</text><text class="t" x="144" y="60">h</text><text class="t" x="152" y="60">z</text><text class="t" x="160" y="60">z</text><text class="t" x="168" y="60">d</text><text class="t" x="176" y="60">i</text><text class="t" x="184" y="60">y</text><text class="t" x="192" y="60">p</text><text class="t" x="200" y="60">y</text><text class="t" x="208" y="60">s</text><text class="t" x="216" y="60">t</text><text class="t" x="224" y="60">f</text><text class="t" x="232" y="60">e</text><text class="t" x="240" y="60">u</text><text class="t" x="248" y="60">x</text><text class="t" x="256" y="60">l</text><text class="t" x="264" y="60">p</text><text class="t" x="272" y="60">b</text><text class="t" x="280" y="60">i</text><text class="t" x="288" y="60">p</text><text class="t" x="296" y="60">h</text><text class="t" x="304" y="60">b</text><text class="t" x="312" y="60">a</text><text class="t" x="320" y="60">z</text><text class="t" x="328" y="60">i</text><text class="t" x="336" y="60">h</text><text class="t" x="344" y="60">s</text><text class="t" x="352" y="60">x</text><text class="t" x="360" y="60">c</text><text class="t" x="368" y="60">w</text><text class="t" x="376" y="60">z</text><text class="t" x="384" y="60">q</text><text class="t" x="392" y="60">s</text><text class="t" x="0" y="70">p</text><text class="t" x="8" y="70">p</text><text class="t" x="16" y="70">s</text><text class="t" x="24" y="70">b</text><text class="t" x="32" y="70">s</text><text class="t" x="40" y="70">v</text><text class="t" x="48" y="70">n</text><text class="t" x="56" y="70">q</text><text class="t" x="64" y="70">t</text><text class="t" x="72" y="70">k</text><text class="t" x="80" y="70">o</text><text class="t" x="88" y="70">l</text><text class="t" x="96" y="70">z</text><text class="t" x="104" y="70">g</text><text class="t" x="112" y="70">c</text><text class="t" x="120" y="70">m</text><text class="t" x="128" y="70">q</text><text class="t" x="136" y="70">j</text><text class="t" x="144" y="70">l</text><text class="t" x="152" y="70">y</text><text class="t" x="160" y="70">i</text><text class="t" x="168" y="70">j</text><text class="t" x="176" y="70">j</text><text class="t" x="184" y="70">s</text><text class="t" x="192" y="70">f</text><text class="t" x="200" y="70">l</text><text class="t" x="208" y="70">m</text><text class="t" x="216" y="70">w</text><text class="t" x="224" y="70">r</text><text class="t" x="232" y="70">v</text><text class="t" x="240" y="70">o</text><text class="t" x="248" y="70">e</text><text class="t" x="256" y="70">a</text><text class="t" x="264" y="70">s</text><text class="t" x="272" y="70">m</text><text class="t" x="280" y="70">y</text><text class="t" x="288" y="70">f</text><text class="t" x="296" y="70">x</text><text class="t" x="304" y="70">s</text><text class="t" x="312" y="70">q</text><text class="t" x="320" y="70">x</text><text class="t" x="328" y="70">g</text><text class="t" x="336" y="70">f</text><text class="t" x="344" y="70">g</text><text class="t" x="352" y="70">y</text><text class="t" x="360" y="70">x</text><text class="t" x="368" y="70">w</text><text class="t" x="376" y="70">l</text><text class="t" x="384" y="70">c</text><text class="t" x="392" y="70">a</text><text class="t" x="0" y="80">w</text><text class="t" x="8" y="80">r</text><text class="t" x="16" y="80">d</text><text class="t" x="24" y="80">y</text><text class="t" x="32" y="80">e</text><text class="t" x="40" y="80">q</text><text class="t" x="48" y="80">d</text><text class="t" x="56" y="80">o</text><text class="t" x="64" y="80">o</text><text class="t" x="72" y="80">m</text><text class="t" x="80" y="80">d</text><text class="t" x="88" y="80">k</text><text class="t" x="96" y="80">h</text><text class="t" x="104" y="80">j</text><text class="t" x="112" y="80">b</text><text class="t" x="120" y="80">h</text><text class="t" x="128" y="80">t</text><text class="t" x="136" y="80">w</text><text class="t" x="144" y="80">i</text><text class="t" x="152" y="80">w</text><text class="t" x="160" y="80">u</text><text class="t" x="168" y="80">k</text><text class="t" x="176" y="80">y</text><text class="t" x="184" y="80">e</text><text class="t" x="192" y="80">d</text><text class="t" x="200" y="80">i</text><text class="t" x="208" y="80">m</text><text class="t" x="216" y="80">d</text><text class="t" x="224" y="80">z</text><text class="t" x="232" y="80">f</text><text class="t" x="240" y="80">z</text><text class="t" x="248" y="80">k</text><text class="t" x="256" y="80">m</text><text class="t" x="264" y="80">u</text><text class="t" x="272" y="80">m</text><text class="t" x="280" y="80">v</text><text class="t" x="288" y="80">v</text><text class="t" x="296" y="80">t</text><text class="t" x="304" y="80">s</text><text class="t" x="312" y="80">h</text><text class="t" x="320" y="80">p</text><text class="t" x="328" y="80">r</text><text class="t" x="336" y="80">d</text><text class="t" x="344" y="80">d</text><text class="t" x="352" y="80">v</text><text class="t" x="360" y="80">e</text><text class="t" x="368" y="80">f</text><text class="t" x="376" y="80">s</text><text class="t" x="384" y="80">r</text><text class="t" x="392" y="80">c</text><text class="t" x="0" y="90">k</text><text class="t" x="8" y="90">u</text><text class="t" x="16" y="90">a</text><text class="t" x="24" y="90">w</text><text class="t" x="32" y="90">u</text><text class="t" x="40" y="90">g</text><text class="t" x="48" y="90">l</text><text class="t" x="56" y="90">l</text><text class="t" x="64" y="90">w</text><text class="t" x="72" y="90">v</text><text class="t" x="80" y="90">k</text><text class="t" x="88" y="90">e</text><text class="t" x="96" y="90">w</text><text class="t" x="104" y="90">y</text><text class="t" x="112" y="90">o</text><text class="t" x="120" y="90">g</text><text class="t" x="128" y="90">t</text><text class="t" x="136" y="90">e</text><text class="t" x="144" y="90">v</text><text class="t" x="152" y="90">b</text><text class="t" x="160" y="90">s</text><text class="t" x="168" y="90">j</text><text class="t" x="176" y="90">u</text><text class="t" x="184" y="90">t</text><text class="t" x="192" y="90">e</text><text class="t" x="200" y="90">g</text><text class="t" x="208" y="90">r</text><text class="t" x="216" y="90">p</text><text class="t" x="224" y="90">n</text><text class="t" x="232" y="90">s</text><text class="t" x="240" y="90">g</text><text class="t" x="248" y="90">d</text><text class="t" x="256" y="90">c</text><text class="t" x="264" y="90">b</text><text class="t" x="272" y="90">v</text><text class="t" x="280" y="90">g</text><text class="t" x="288" y="90">j</text><text class="t" x="296" y="90">g</text><text class="t" x="304" y="90">g</text><text class="t" x="312" y="90">t</text><text class="t" x="320" y="90">t</text><text class="t" x="328" y="90">m</text><text class="t" x="336" y="90">w</text><text class="t" x="344" y="90">h</text><text class="t" x="352" y="90">u</text><text class="t" x="360" y="90">d</text><text class="t" x="368" y="90">g</text><text class="t" x="376" y="90">f</text><text class="t" x="384" y="90">p</text><text class="t" x="392" y="90">o</text><text class="t" x="0" y="100">f</text><text class="t" x="8" y="100">v</text><text class="t" x="16" y="100">k</text><text class="t" x="24" y="100">l</text><text class="t" x="32" y="100">l</text><text class="t" x="40" y="100">a</text><text class="t" x="48" y="100">h</text><text class="t" x="56" y="100">q</text><text class="t" x="64" y="100">y</text><text class="t" x="72" y="100">d</text><text class="t" x="80" y="100">b</text><text class="t" x="88" y="100">y</text><text class="t" x="96" y="100">m</text><text class="t" x="104" y="100">r</text><text class="t" x="112" y="100">q</text><text class="t" x="120" y="100">f</text><text class="t" x="128" y="100">r</text><text class="t" x="136" y="100">u</text><text class="t" x="144" y="100">m</text><text class="t" x="152" y="100">n</text><text class="t" x="160" y="100">a</text><text class="t" x="168" y="100">k</text><text class="t" x="176" y="100">m</text><text class="t" x="184" y="100">b</text><text class="t" x="192" y="100">l</text><text class="t" x="200" y="100">l</text><text class="t" x="208" y="100">e</text><text class="t" x="216" y="100">x</text><text class="t" x="224" y="100">f</text><text class="t" x="232" y="100">m</text><text class="t" x="240" y="100">z</text><text class="t" x="248" y="100">v</text><text class="t" x="256" y="100">j</text><text class="t" x="264" y="100">u</text><text class="t" x="272" y="100">g</text><text class="t" x="280" y="100">w</text><text class="t" x="288" y="100">z</text><text class="t" x="296" y="100">t</text><text class="t" x="304" y="100">e</text><text class="t" x="312" y="100">i</text><text class="t" x="320" y="100">u</text><text class="t" x="328" y="100">z</text><text class="t" x="336" y="100">m</text><text class="t" x="344" y="100">t</text><text class="t" x="352" y="100">w</text><text class="t" x="360" y="100">p</text><text class="t" x="368" y="100">g</text><text class="t" x="376" y="100">a</text><text class="t" x="384" y="100">e</text><text class="t" x="392" y="100">w</text><text class="t" x="0" y="110">f</text><text class="t" x="8" y="110">y</text><text class="t" x="16" y="110">y</text><text class="t" x="24" y="110">d</text><text class="t" x="32" y="110">l</text><text class="t" x="40" y="110">d</text><text class="t" x="48" y="110">e</text><text class="t" x="56" y="110">o</text><text class="t" x="64" y="110">p</text><text class="t" x="72" y="110">d</text><text class="t" x="80" y="110">c</text><text class="t" x="88" y="110">a</text><text class="t" x="96" y="110">b</text><text class="t" x="104" y="110">j</text><text class="t" x="112" y="110">u</text><text class="t" x="120" y="110">x</text><text class="t" x="128" y="110">g</text><text class="t" x="136" y="110">k</text><text class="t" x="144" y="110">t</text><text class="t" x="152" y="110">b</text><text class="t" x="160" y="110">p</text><text class="t" x="168" y="110">v</text><text class="t" x="176" y="110">g</text><text class="t" x="184" y="110">n</text><text class="t" x="192" y="110">w</text><text class="t" x="200" y="110">e</text><text class="t" x="208" y="110">w</text><text class="t" x="216" y="110">x</text><text class="t" x="224" y="110">b</text><text class="t" x="232" y="110">n</text><text class="t" x="240" y="110">z</text><text class="t" x="248" y="110">i</text><text class="t" x="256" y="110">c</text><text class="t" x="264" y="110">p</text><text class="t" x="272" y="110">u</text><text class="t" x="280" y="110">y</text><text class="t" x="288" y="110">x</text><text class="t" x="296" y="110">o</text><text class="t" x="304" y="110">p</text><text class="t" x="312" y="110">k</text><text class="t" x="320" y="110">o</text><text class="t" x="328" y="110">z</text><text class="t" x="336" y="110">f</text><text class="t" x="344" y="110">z</text><text class="t" x="352" y="110">j</text><text class="t" x="360" y="110">c</text><text class="t" x="368" y="110">j</text><text class="t" x="376" y="110">p</text><text class="t" x="384" y="110">o</text><text class="t" x="392" y="110">m</text><text class="t" x="0" y="120">r</text><text class="t" x="8" y="120">p</text><text class="t" x="16" y="120">j</text><text class="t" x="24" y="120">f</text><text class="t" x="32" y="120">o</text><text class="t" x="40" y="120">p</text><text class="t" x="48" y="120">c</text><text class="t" x="56" y="120">m</text><text class="t" x="64" y="120">m</text><text class="t" x="72" y="120">s</text><text class="t" x="80" y="120">f</text><text class="t" x="88" y="120">v</text><text class="t" x="96" y="120">t</text><text class="t" x="104" y="120">e</text><text class="t" x="112" y="120">l</text><text class="t" x="120" y="120">y</text><text class="t" x="128" y="120">t</text><text class="t" x="136" y="120">j</text><text class="t" x="144" y="120">g</text><text class="t" x="152" y="120">v</text><text class="t" x="160" y="120">u</text><text class="t" x="168" y="120">y</text><text class="t" x="176" y="120">s</text><text class="t" x="184" y="120">g</text><text class="t" x="192" y="120">p</text><text class="t" x="200" y="120">f</text><text class="t" x="208" y="120">v</text><text class="t" x="216" y="120">b</text><text class="t" x="224" y="120">l</text><text class="t" x="232" y="120">l</text><text class="t" x="240" y="120">q</text><text class="t" x="248" y="120">t</text><text class="t" x="256" y="120">b</text><text class="t" x="264" y="120">q</text><text class="t" x="272" y="120">d</text><text class="t" x="280" y="120">l</text><text class="t" x="288" y="120">e</text><text class="t" x="296" y="120">y</text><text class="t" x="304" y="120">q</text><text class="t" x="312" y="120">b</text><text class="t" x="320" y="120">t</text><text class="t" x="328" y="120">r</text><text class="t" x="336" y="120">v</text><text class="t" x="344" y="120">b</text><text class="t" x="352" y="120">v</text><text class="t" x="360" y="120">a</text><text class="t" x="368" y="120">n</text><text class="t" x="376" y="120">z</text><text class="t" x="384" y="120">z</text><text class="t" x="392" y="120">f</text><text class="t" x="0" y="130">l</text><text class="t" x="8" y="130">b</text><text class="t" x="16" y="130">p</text><text class="t" x="24" y="130">c</text><text class="t" x="32" y="130">a</text><text class="t" x="40" y="130">v</text><text class="t" x="48" y="130">t</text><text class="t" x="56" y="130">i</text><text class="t" x="64" y="130">q</text><text class="t" x="72" y="130">j</text><text class="t" x="80" y="130">p</text><text class="t" x="88" y="130">u</text><text class="t" x="96" y="130">t</text><text class="t" x="104" y="130">v</text><text class="t" x="112" y="130">d</text><text class="t" x="120" y="130">s</text><text class="t" x="128" y="130">s</text><text class="t" x="136" y="130">v</text><text class="t" x="144" y="130">l</text><text class="t" x="152" y="130">e</text><text class="t" x="160" y="130">g</text><text class="t" x="168" y="130">z</text><text class="t" x="176" y="130">a</text><text class="t" x="184" y="130">m</text><text class="t" x="192" y="130">s</text><text class="t" x="200" y="130">c</text><text class="t" x="208" y="130">z</text><text class="t" x="216" y="130">e</text><text class="t" x="224" y="130">j</text><text class="t" x="232" y="130">y</text><text class="t" x="240" y="130">u</text><text class="t" x="248" y="130">r</text><text class="t" x="256" y="130">n</text><text class="t" x="264" y="130">f</text><text class="t" x="272" y="130">x</text><text class="t" x="280" y="130">u</text><text class="t" x="288" y="130">j</text><text class="t" x="296" y="130">q</text><text class="t" x="304" y="130">p</text><text class="t" x="312" y="130">u</text><text class="t" x="320" y="130">g</text><text class="t" x="328" y="130">s</text><text class="t" x="336" y="130">p</text><text class="t" x="344" y="130">l</text><text class="t" x="352" y="130">x</text><text class="t" x="360" y="130">x</text><text class="t" x="368" y="130">m</text><text class="t" x="376" y="130">u</text><text class="t" x="384" y="130">b</text><text class="t" x="392" y="130">d</text><text class="t" x="0" y="140">n</text><text class="t" x="8" y="140">l</text><text class="t" x="16" y="140">u</text><text class="t" x="24" y="140">d</text><text class="t" x="32" y="140">t</text><text class="t" x="40" y="140">q</text><text class="t" x="48" y="140">z</text><text class="t" x="56" y="140">i</text><text class="t" x="64" y="140">o</text><text class="t" x="72" y="140">a</text><text class="t" x="80" y="140">t</text><text class="t" x="88" y="140">n</text><text class="t" x="96" y="140">j</text><text class="t" x="104" y="140">w</text><text class="t" x="112" y="140">q</text><text class="t" x="120" y="140">y</text><text class="t" x="128" y="140">h</text><text class="t" x="136" y="140">b</text><text class="t" x="144" y="140">f</text><text class="t" x="152" y="140">s</text><text class="t" x="160" y="140">r</text><text class="t" x="168" y="140">s</text><text class="t" x="176" y="140">i</text><text class="t" x="184" y="140">v</text><text class="t" x="192" y="140">t</text><text class="t" x="200" y="140">y</text><text class="t" x="208" y="140">v</text><text class="t" x="216" y="140">k</text><text class="t" x="224" y="140">o</text><text class="t" x="232" y="140">c</text><text class="t" x="240" y="140">e</text><text class="t" x="248" y="140">o</text><text class="t" x="256" y="140">q</text><text class="t" x="264" y="140">c</text><text class="t" x="272" y="140">u</text><text class="t" x="280" y="140">k</text><text class="t" x="288" y="140">e</text><text class="t" x="296" y="140">a</text><text class="t" x="304" y="140">v</text><text class="t" x="312" y="140">j</text><text class="t" x="320" y="140">q</text><text class="t" x="328" y="140">r</text><text class="t" x="336" y="140">q</text><text class="t" x="344" y="140">t</text><text class="t" x="352" y="140">y</text><text class="t" x="360" y="140">b</text><text class="t" x="368" y="140">g</text><text class="t" x="376" y="140">e</text><text class="t" x="384" y="140">p</text><text class="t" x="392" y="140">o</text></g>
    </g>
</svg>